<?xml version="1.0" encoding="UTF-8"?>
<svg version="1.1" xmlns="http://www.w3.org/2000/svg" width="512" height="512">
<path d="M0 0 C168.96 0 337.92 0 512 0 C512 168.96 512 337.92 512 512 C343.04 512 174.08 512 0 512 C0 343.04 0 174.08 0 0 Z " fill="#000000" transform="translate(0,0)"/>
<path d="M0 0 C1.17021698 -0.0071553 2.34043396 -0.01431061 3.54611206 -0.02168274 C4.82661942 -0.02437164 6.10712677 -0.02706055 7.42643738 -0.02983093 C8.79183626 -0.0360994 10.15723344 -0.04274654 11.52262878 -0.04974365 C16.00642211 -0.07075802 20.49021564 -0.08115026 24.9740448 -0.09111023 C26.52273259 -0.09516013 28.07142021 -0.09927712 29.62010765 -0.10346031 C36.90461009 -0.1225139 44.18910244 -0.1367391 51.473625 -0.14507228 C59.85127983 -0.15481631 68.22866844 -0.18106045 76.6062296 -0.22157317 C83.09906211 -0.25188057 89.591819 -0.2665553 96.08472079 -0.26985329 C99.95350037 -0.27218908 103.82199567 -0.28095368 107.69069862 -0.30631447 C111.340925 -0.32985478 114.99068528 -0.33372629 118.64096832 -0.32355309 C120.5930536 -0.32283331 122.54511658 -0.34174503 124.49710083 -0.36161804 C144.14080192 -0.24806635 159.75532013 7.00199621 173.89201355 20.39717102 C192.03525985 39.2345937 192.18398954 61.52838939 192.04003501 86.06403637 C192.0208905 90.20115432 192.03231058 94.3382153 192.03894043 98.47535706 C192.04524184 105.40453105 192.02719851 112.33331361 191.99430847 119.2624054 C191.95665026 127.26199347 191.95868179 135.26084704 191.98134965 143.26047492 C192.00230504 150.99090866 191.99503266 158.72107193 191.9750309 166.45149994 C191.96706604 169.72893804 191.9690101 173.00614601 191.9790554 176.28357697 C191.98961829 180.13524537 191.97544781 183.98605661 191.94231224 187.83758926 C191.93412163 189.24766078 191.93436964 190.65781108 191.94379044 192.06787491 C192.0149576 204.03490843 192.0149576 204.03490843 188.86381531 207.91726685 C183.02422061 212.93179541 179.18855362 213.62280298 171.6537323 213.65107727 C170.72535049 213.66106247 169.79696869 213.67104767 168.8404541 213.68133545 C166.87957706 213.69649424 164.91862295 213.70356194 162.95768738 213.70307922 C159.9741954 213.70962782 156.99405584 213.76409517 154.01115417 213.82099915 C152.10035819 213.82980484 150.18954649 213.83575663 148.2787323 213.83857727 C147.39513535 213.86013382 146.51153839 213.88169037 145.60116577 213.90390015 C139.75816863 213.84001311 136.41822 212.47999753 131.86035156 208.82598877 C128.47915754 205.26339973 128.01784858 202.18122415 128.02650452 197.35121155 C128.02238052 195.57599121 128.02238052 195.57599121 128.01817322 193.76490784 C128.02895905 191.8228244 128.02895905 191.8228244 128.03996277 189.84150696 C128.04052704 188.46162423 128.04021002 187.0817409 128.03907776 185.70185852 C128.03850385 181.95836049 128.05026435 178.21499058 128.06422567 174.47152233 C128.07672662 170.55841916 128.07790303 166.64531306 128.08027649 162.73219299 C128.08649313 155.32327751 128.10290643 147.91442104 128.12297547 140.50553155 C128.14532875 132.07029924 128.15632646 123.63506411 128.16636634 115.19980955 C128.1872725 97.84889591 128.22245205 80.4980397 128.26701355 63.14717102 C127.2239483 63.15270178 127.2239483 63.15270178 126.15981102 63.15834427 C109.23367272 63.24671162 92.30760756 63.31288849 75.38129234 63.35441971 C67.19581692 63.37503814 59.01049556 63.40314488 50.82511902 63.44892883 C43.6900871 63.48881875 36.55516675 63.51460907 29.42002642 63.523525 C25.64255689 63.52873615 21.86540655 63.54096887 18.0880394 63.57009125 C14.53065967 63.5972947 10.97372981 63.60560626 7.41625595 63.59960175 C5.49220281 63.60122233 3.56819838 63.62271942 1.64427185 63.64485168 C-8.96096064 63.59425659 -8.96096064 63.59425659 -13.73298645 59.14717102 C-17.26336134 54.10604381 -17.18612904 49.29776852 -17.1665802 43.36592102 C-17.17182205 42.43421082 -17.1770639 41.50250061 -17.1824646 40.54255676 C-17.18886747 38.57922865 -17.18757035 36.61586209 -17.17903137 34.65254211 C-17.17051316 31.65656534 -17.19932015 28.66249138 -17.23103333 25.66670227 C-17.23264538 23.75394242 -17.23206772 21.84117921 -17.2290802 19.92842102 C-17.24031418 19.03763855 -17.25154816 18.14685608 -17.26312256 17.2290802 C-17.19049562 10.7175275 -15.40421462 7.37490505 -11.23298645 2.33467102 C-7.96540635 -0.25216322 -4.0075592 0.01684636 0 0 Z " fill="#FE7646" transform="translate(133.7329864501953,227.8528289794922)"/>
<path d="M0 0 C1.38532173 0.00067978 1.38532173 0.00067978 2.79862976 0.00137329 C3.76621719 -0.00198532 4.73380463 -0.00534393 5.73071289 -0.00880432 C8.95144412 -0.01835416 12.1721235 -0.0202601 15.39286804 -0.02133179 C17.62953208 -0.02454392 19.86619591 -0.02790796 22.1028595 -0.03141785 C26.80565375 -0.03742083 31.5084296 -0.03925679 36.21122742 -0.03866577 C42.21761857 -0.03856462 48.22389027 -0.05216294 54.23025322 -0.06943798 C58.8578698 -0.08060202 63.48545803 -0.08258355 68.1130867 -0.08205605 C70.32570427 -0.0832316 72.53832269 -0.08762941 74.75092697 -0.09538841 C77.86196249 -0.1052677 80.97274578 -0.10227805 84.08378601 -0.09628296 C84.98709152 -0.10190247 85.89039703 -0.10752197 86.82107544 -0.11331177 C104.51578849 -0.0273595 120.12588273 5.72755882 132.83818054 18.08413696 C144.81562995 30.50656902 150.11056541 44.55838742 149.92875671 61.86026001 C149.92919479 62.97377335 149.92963287 64.08728668 149.93008423 65.23454285 C149.92801203 68.87599887 149.904755 72.51698118 149.88114929 76.15835571 C149.87554777 78.69853972 149.8712803 81.23872699 149.86828613 83.77891541 C149.8580438 89.75685763 149.83445549 95.73459984 149.80423766 101.71246225 C149.77055682 108.52513959 149.75417347 115.33782546 149.73915136 122.15056551 C149.70790124 136.14934805 149.65522685 150.14798331 149.58818054 164.14663696 C148.33948181 164.15582153 147.09078308 164.1650061 145.804245 164.17446899 C145.10185196 164.17963531 144.39945892 164.18480164 143.67578125 164.19012451 C128.6440486 163.87699317 116.78707417 156.61534259 106.58818054 146.14663696 C94.12129284 132.59203422 91.40698595 115.55094391 91.49052429 97.89273071 C91.49193924 96.7512709 91.49335419 95.6098111 91.49481201 94.4337616 C91.50037303 90.81719247 91.51291823 87.20068712 91.52568054 83.58413696 C91.53070058 81.11994515 91.5352626 78.65575237 91.53935242 76.19155884 C91.55032968 70.17656342 91.56702861 64.16160475 91.58818054 58.14663696 C90.72066162 58.16329155 90.72066162 58.16329155 89.83561707 58.18028259 C83.73458035 58.29218674 77.63384182 58.36683803 71.5320282 58.42129517 C69.26465485 58.44620959 66.99735985 58.48015394 64.73027039 58.52383423 C42.78005457 58.93570362 24.38250804 55.99609704 7.62333679 40.39273071 C3.98282115 36.37488716 1.28838455 31.82652421 -1.41181946 27.14663696 C-1.9364679 26.3306604 -2.46111633 25.51468384 -3.00166321 24.67398071 C-6.97656368 17.54999012 -7.93809322 9.17231176 -7.41181946 1.14663696 C-5.47943414 -0.78574836 -2.57261703 0.01313549 0 0 Z " fill="#F87445" transform="translate(249.4118194580078,161.85336303710938)"/>
<path d="M0 0 C15.4054552 8.29766878 23.58031848 21.32047392 28.90541077 37.53297424 C29.93045954 41.61873477 30.17563238 45.40501118 30.17944336 49.58496094 C30.18776688 50.37292557 30.19609039 51.1608902 30.20466614 51.97273254 C30.22861702 54.55845177 30.23751863 57.1439182 30.24414062 59.72973633 C30.25311636 61.53902762 30.26223836 63.34831818 30.27149963 65.15760803 C30.28795025 68.94265542 30.29568291 72.72761475 30.29858398 76.51269531 C30.30397221 81.34918967 30.34168715 86.18485065 30.38732815 91.02110958 C30.41714663 94.75561004 30.42430854 98.4899106 30.42531013 102.22451973 C30.42950077 104.00703319 30.4418884 105.78954789 30.46282768 107.57194328 C30.64957289 124.83763903 30.64957289 124.83763903 26.45555115 129.99438477 C20.23071517 135.48366362 14.08473626 135.97956753 6.02148438 135.88598633 C4.49498764 135.88816917 4.49498764 135.88816917 2.93765259 135.89039612 C0.797924 135.88874403 -1.34181733 135.8772607 -3.48144531 135.85644531 C-6.74921225 135.82741693 -10.01536176 135.83586647 -13.28320312 135.84887695 C-15.36914847 135.84264084 -17.45508873 135.83425089 -19.54101562 135.82348633 C-20.5130191 135.82642197 -21.48502258 135.8293576 -22.48648071 135.8323822 C-29.02262862 135.7417453 -33.63076411 134.95542018 -38.37695312 130.07739258 C-42.54806035 123.67176363 -42.42380759 117.49429244 -42.41748047 110.09545898 C-42.42419769 108.96626541 -42.43091492 107.83707184 -42.43783569 106.67366028 C-42.45681108 102.94621361 -42.46073959 99.21894702 -42.46289062 95.49145508 C-42.46931845 92.89602586 -42.4760468 90.30059737 -42.48306274 87.70516968 C-42.49503409 82.26639823 -42.49882944 76.82769802 -42.49755859 71.38891602 C-42.49635747 65.11653911 -42.51745906 58.84450645 -42.54904592 52.57221663 C-42.57842239 46.5216341 -42.58553277 40.47123751 -42.58433914 34.42057419 C-42.58669673 31.85378996 -42.59552906 29.28700309 -42.61100388 26.72026443 C-42.63063737 23.12759206 -42.6248353 19.53580235 -42.61279297 15.94311523 C-42.62403198 14.8872673 -42.635271 13.83141937 -42.64685059 12.74357605 C-42.59401754 6.52890667 -41.88821407 1.49832966 -38.12695312 -3.61010742 C-27.36670801 -13.00794788 -10.97920856 -5.57140302 0 0 Z " fill="#FE7242" transform="translate(159.126953125,78.610107421875)"/>
<path d="M0 0 C7.12248466 4.94952324 12.6940154 11.53475484 15.63671875 19.78515625 C17.19079826 29.26002808 17.37431186 39.79139687 12 48 C11.52175781 48.78632813 11.04351562 49.57265625 10.55078125 50.3828125 C4.56561534 59.39418589 -3.42622297 66.6875812 -11.14404297 74.19238281 C-13.4515234 76.43976312 -15.72812736 78.71667254 -18 81 C-29 92 -29 92 -31.42578125 94.41796875 C-33.38166265 96.37978605 -35.32497067 98.35148312 -37.26171875 100.33203125 C-38.40358306 101.49224929 -39.54551099 102.65240471 -40.6875 103.8125 C-41.26822266 104.40998047 -41.84894531 105.00746094 -42.44726562 105.62304688 C-43.92725576 107.12014673 -45.45982782 108.56488731 -47 110 C-47.66 110 -48.32 110 -49 110 C-49.25910156 110.60328125 -49.51820313 111.2065625 -49.78515625 111.828125 C-51.90437967 115.6168331 -55.054466 117.3629551 -59 119 C-63.75884905 119.99459254 -67.98606807 120.232301 -72.234375 117.6328125 C-74.27852234 115.85012587 -76.13125328 113.96437556 -78 112 C-79.17630526 111.0074127 -80.36349912 110.02754949 -81.5625 109.0625 C-84.69989295 106.38337793 -87.31076731 103.42463689 -89.96875 100.27734375 C-93.29025482 96.55342585 -96.93547237 93.15084894 -100.546875 89.7109375 C-104.40641601 85.44577594 -106.43404066 81.46817038 -106.5625 75.6875 C-106.60503906 74.82511719 -106.64757812 73.96273437 -106.69140625 73.07421875 C-104.37461643 62.77301204 -94.48040351 55.04058832 -87.26171875 47.86328125 C-86.01346346 46.61300053 -84.7656534 45.36227514 -83.51826477 44.11112976 C-80.91325878 41.50172254 -78.30296083 38.89776235 -75.6887207 36.29760742 C-72.35673325 32.98271022 -69.03839922 29.65452316 -65.72394085 26.32211018 C-63.15300568 23.74027755 -60.57489749 21.16570259 -57.99463844 18.59319115 C-56.76897503 17.36951329 -55.54549252 16.14364656 -54.32434654 14.91546059 C-38.76955901 -0.70930171 -22.00132926 -12.82630685 0 0 Z " fill="#FD7344" transform="translate(220,321)"/>
<path d="M0 0 C18.48 0 36.96 0 56 0 C56 34.98 56 69.96 56 106 C38.71405946 104.76528996 25.77146378 100.90942883 13.7734375 88.15234375 C6.42855304 79.23817781 -0.13759239 66.73230825 -0.11352539 55.05981445 C-0.11344986 53.83877518 -0.11337433 52.6177359 -0.11329651 51.35969543 C-0.10813522 50.04087875 -0.10297394 48.72206207 -0.09765625 47.36328125 C-0.0957908 45.99993441 -0.0943675 44.63658689 -0.09336853 43.27323914 C-0.08955332 39.68771509 -0.07973155 36.10223165 -0.06866455 32.51672363 C-0.05842901 28.8568579 -0.05381151 25.19698541 -0.04882812 21.53710938 C-0.03863926 14.35803707 -0.01906512 7.17907623 0 0 Z " fill="#FD7B49" transform="translate(342,220)"/>
<path d="M0 0 C0.99 0.66 1.98 1.32 3 2 C-4.75 2.125 -4.75 2.125 -7 1 C-9.37123246 0.76970044 -11.74741943 0.58880058 -14.125 0.4375 C-15.40632813 0.35371094 -16.68765625 0.26992187 -18.0078125 0.18359375 C-19.48894531 0.09271484 -19.48894531 0.09271484 -21 0 C-21 0.66 -21 1.32 -21 2 C-22.65 2.33 -24.3 2.66 -26 3 C-26.33 3.99 -26.66 4.98 -27 6 C-27.66 6 -28.32 6 -29 6 C-29 46.92 -29 87.84 -29 130 C-28.34 130 -27.68 130 -27 130 C-27 131.32 -27 132.64 -27 134 C-25.02 134.66 -23.04 135.32 -21 136 C-21 136.66 -21 137.32 -21 138 C-14.07645153 137.88247267 -7.15306263 137.75763983 -0.22973633 137.62768555 C2.12635295 137.58432792 4.48247383 137.54265346 6.83862305 137.50268555 C10.22193938 137.44500324 13.60509657 137.38130269 16.98828125 137.31640625 C18.57277824 137.29133751 18.57277824 137.29133751 20.18928528 137.26576233 C21.17007553 137.24581711 22.15086578 137.22587189 23.16137695 137.20532227 C24.02519485 137.18977798 24.88901276 137.1742337 25.77900696 137.15821838 C28.17365425 137.07990261 28.17365425 137.07990261 31 136 C31.66 136 32.32 136 33 136 C33 135.34 33 134.68 33 134 C33.99 134.33 34.98 134.66 36 135 C31.33258077 138.21533324 28.12625614 140.11321262 22.44018555 140.16113281 C21.51880295 140.17074036 20.59742035 140.1803479 19.64811707 140.19024658 C18.65435562 140.19449646 17.66059418 140.19874634 16.63671875 140.203125 C15.61197952 140.20882507 14.5872403 140.21452515 13.53144836 140.22039795 C11.36187777 140.22984715 9.19229283 140.23638161 7.02270508 140.24023438 C3.71084404 140.24993165 0.39960578 140.28095281 -2.91210938 140.3125 C-5.02082965 140.31903106 -7.12955436 140.32428113 -9.23828125 140.328125 C-10.22597 140.3404718 -11.21365875 140.3528186 -12.23127747 140.36553955 C-17.58353734 140.34828344 -21.38833227 140.03460419 -26 137 C-32.37532056 130.4475872 -32.29791227 123.34138173 -32.29052734 114.70556641 C-32.29724457 113.57637283 -32.30396179 112.44717926 -32.31088257 111.2837677 C-32.32985796 107.55632103 -32.33378646 103.82905444 -32.3359375 100.1015625 C-32.34236532 97.50613328 -32.34909367 94.91070479 -32.35610962 92.3152771 C-32.36808096 86.87650565 -32.37187631 81.43780544 -32.37060547 75.99902344 C-32.36940435 69.72664653 -32.39050594 63.45461388 -32.4220928 57.18232405 C-32.45146926 51.13174153 -32.45857964 45.08134493 -32.45738602 39.03068161 C-32.4597436 36.46389739 -32.46857593 33.89711052 -32.48405075 31.33037186 C-32.50368424 27.73769948 -32.49788217 24.14590977 -32.48583984 20.55322266 C-32.49707886 19.49737473 -32.50831787 18.44152679 -32.51989746 17.35368347 C-32.46706441 11.13901409 -31.76126094 6.10843708 -28 1 C-19.89785325 -6.07629629 -9.33017373 -3.05402083 0 0 Z " fill="#F87652" transform="translate(149,74)"/>
<path d="M0 0 C13.49081849 -0.04630139 26.98161814 -0.08185806 40.47249985 -0.10362434 C46.73657789 -0.11407004 53.00060164 -0.12824367 59.26464844 -0.15087891 C65.30762517 -0.17257912 71.35054963 -0.1845627 77.39356232 -0.18975449 C79.70128452 -0.19345531 82.0090038 -0.20068189 84.3167038 -0.21146011 C87.54420702 -0.2259374 90.77149307 -0.2279795 93.99902344 -0.22705078 C94.95711914 -0.23424133 95.91521484 -0.24143188 96.90234375 -0.24884033 C97.78291443 -0.246091 98.66348511 -0.24334167 99.57073975 -0.24050903 C100.33398434 -0.24235262 101.09722893 -0.24419621 101.88360214 -0.24609566 C104 0 104 0 108 2 C75.66 2 43.32 2 10 2 C10 3.98 10 5.96 10 8 C42.34 8 74.68 8 108 8 C108 8.66 108 9.32 108 10 C72.36 10 36.72 10 0 10 C0 8.68 0 7.36 0 6 C1.98 6 3.96 6 6 6 C6 4.68 6 3.36 6 2 C4.68 2 3.36 2 2 2 C2 2.66 2 3.32 2 4 C1.34 4 0.68 4 0 4 C0 2.68 0 1.36 0 0 Z " fill="#FC773C" transform="translate(244,164)"/>
<path d="M0 0 C0.66 0 1.32 0 2 0 C4.78647721 2.78647721 4.28136199 4.51782913 4.3347168 8.42382812 C4.34636871 9.08461365 4.35802063 9.74539917 4.37002563 10.4262085 C4.40619791 12.62786348 4.42797887 14.82940391 4.44921875 17.03125 C4.47051055 18.58037225 4.49247958 20.12948532 4.51509094 21.67858887 C4.56063793 24.9471402 4.59934248 28.21568067 4.63305664 31.484375 C4.67574491 35.59242303 4.73268572 39.7001075 4.79447746 43.8079071 C5.0716086 62.57496313 5.01259849 81.2497612 4 100 C2.68 100 1.36 100 0 100 C0 67 0 34 0 0 Z " fill="#FA7D52" transform="translate(390,220)"/>
<path d="M0 0 C0.33 0 0.66 0 1 0 C1 45.87 1 91.74 1 139 C-2 136 -2 136 -2.37473011 133.76464367 C-2.37456237 132.88592256 -2.37439463 132.00720144 -2.3742218 131.10185242 C-2.38123611 130.09143387 -2.38825043 129.08101532 -2.39547729 128.03997803 C-2.38783356 126.93196838 -2.38018982 125.82395874 -2.37231445 124.68237305 C-2.37779045 122.93054466 -2.37779045 122.93054466 -2.38337708 121.14332581 C-2.39010412 117.93591824 -2.38334786 114.72888771 -2.37004495 111.52151084 C-2.35871248 108.15413615 -2.3628401 104.78677611 -2.36479187 101.41938782 C-2.36567562 95.75244188 -2.35458886 90.08561536 -2.33618164 84.41870117 C-2.31512497 77.89950409 -2.31147965 71.38048332 -2.3177436 64.86125916 C-2.32347892 58.56670636 -2.31773575 52.27221467 -2.30657005 45.97767067 C-2.30196727 43.31256106 -2.30156047 40.64755235 -2.3031559 37.9824276 C-2.30583045 11.2336196 -2.30583045 11.2336196 0 0 Z " fill="#FB8363" transform="translate(324,290)"/>
<path d="M0 0 C1.38532173 0.00067978 1.38532173 0.00067978 2.79862976 0.00137329 C3.76621719 -0.00198532 4.73380463 -0.00534393 5.73071289 -0.00880432 C8.95144412 -0.01835416 12.1721235 -0.0202601 15.39286804 -0.02133179 C17.62953208 -0.02454392 19.86619591 -0.02790796 22.1028595 -0.03141785 C26.80565375 -0.03742083 31.5084296 -0.03925679 36.21122742 -0.03866577 C42.21761857 -0.03856462 48.22389027 -0.05216294 54.23025322 -0.06943798 C58.8578698 -0.08060202 63.48545803 -0.08258355 68.1130867 -0.08205605 C70.32570427 -0.0832316 72.53832269 -0.08762941 74.75092697 -0.09538841 C77.86196249 -0.1052677 80.97274578 -0.10227805 84.08378601 -0.09628296 C84.98709152 -0.10190247 85.89039703 -0.10752197 86.82107544 -0.11331177 C101.78689541 -0.04061513 115.5680658 4.10825611 127.58818054 13.14663696 C125.88896179 13.85757446 125.88896179 13.85757446 123.58818054 14.14663696 C121.25614929 12.74819946 121.25614929 12.74819946 118.77568054 10.77163696 C114.62224218 7.68255541 111.83948543 6.46171526 106.58818054 6.14663696 C104.40068054 5.14663696 104.40068054 5.14663696 102.58818054 4.14663696 C99.72533112 3.28517003 97.1420722 3.01363846 94.15892029 2.98841858 C92.83806427 2.97373535 92.83806427 2.97373535 91.49052429 2.95875549 C90.53242859 2.95300003 89.57433289 2.94724457 88.58720398 2.9413147 C87.57224854 2.9314151 86.55729309 2.9215155 85.51158142 2.91131592 C82.15692985 2.8797295 78.80226413 2.85495468 75.44755554 2.83023071 C73.12156303 2.80965873 70.79557423 2.78866219 68.46958923 2.76725769 C62.34744783 2.71206233 56.22527282 2.66264181 50.10307312 2.6144104 C43.85589101 2.56417691 37.60875769 2.50850048 31.36161804 2.45327759 C19.10384722 2.345727 6.84603404 2.24427509 -5.41181946 2.14663696 C-5.41181946 3.46663696 -5.41181946 4.78663696 -5.41181946 6.14663696 C-4.75181946 6.14663696 -4.09181946 6.14663696 -3.41181946 6.14663696 C-3.41181946 5.48663696 -3.41181946 4.82663696 -3.41181946 4.14663696 C-2.09181946 4.14663696 -0.77181946 4.14663696 0.58818054 4.14663696 C0.58818054 5.46663696 0.58818054 6.78663696 0.58818054 8.14663696 C-1.39181946 8.14663696 -3.37181946 8.14663696 -5.41181946 8.14663696 C-5.41181946 9.46663696 -5.41181946 10.78663696 -5.41181946 12.14663696 C-3.43181946 12.14663696 -1.45181946 12.14663696 0.58818054 12.14663696 C0.58818054 12.80663696 0.58818054 13.46663696 0.58818054 14.14663696 C-0.73181946 14.14663696 -2.05181946 14.14663696 -3.41181946 14.14663696 C-3.41181946 16.12663696 -3.41181946 18.10663696 -3.41181946 20.14663696 C-2.75181946 20.14663696 -2.09181946 20.14663696 -1.41181946 20.14663696 C0.87831708 23.58184176 0.76661028 25.13196796 0.58818054 29.14663696 C-5.63499409 21.73809573 -7.66077833 12.37524155 -7.57978821 2.93179321 C-7.1800279 -1.31682217 -3.44877667 0.01760906 0 0 Z " fill="#DF6749" transform="translate(249.4118194580078,161.85336303710938)"/>
<path d="M0 0 C1.17021698 -0.0071553 2.34043396 -0.01431061 3.54611206 -0.02168274 C4.82661942 -0.02437164 6.10712677 -0.02706055 7.42643738 -0.02983093 C8.79183626 -0.0360994 10.15723344 -0.04274654 11.52262878 -0.04974365 C16.00642211 -0.07075802 20.49021564 -0.08115026 24.9740448 -0.09111023 C26.52273259 -0.09516013 28.07142021 -0.09927712 29.62010765 -0.10346031 C36.90461009 -0.1225139 44.18910244 -0.1367391 51.473625 -0.14507228 C59.85127983 -0.15481631 68.22866844 -0.18106045 76.6062296 -0.22157317 C83.09906211 -0.25188057 89.591819 -0.2665553 96.08472079 -0.26985329 C99.95350037 -0.27218908 103.82199567 -0.28095368 107.69069862 -0.30631447 C111.340925 -0.32985478 114.99068528 -0.33372629 118.64096832 -0.32355309 C120.5930536 -0.32283331 122.54511658 -0.34174503 124.49710083 -0.36161804 C133.68489656 -0.30850739 141.54033055 1.44120763 150.26701355 4.14717102 C150.26701355 4.80717102 150.26701355 5.46717102 150.26701355 6.14717102 C148.28701355 6.14717102 146.30701355 6.14717102 144.26701355 6.14717102 C144.26701355 5.48717102 144.26701355 4.82717102 144.26701355 4.14717102 C142.28701355 4.14717102 140.30701355 4.14717102 138.26701355 4.14717102 C138.26701355 3.48717102 138.26701355 2.82717102 138.26701355 2.14717102 C119.4130738 2.2076523 100.55927713 2.28511427 81.70549297 2.38288593 C72.95167938 2.42788383 64.19790683 2.46728919 55.4440155 2.49360657 C47.81561882 2.5165544 40.1873516 2.54991618 32.55905753 2.59587258 C28.5185562 2.61984839 24.47818343 2.6385485 20.43761253 2.64478493 C16.63644006 2.65081622 12.83559672 2.67074441 9.0345459 2.70144653 C7.63774205 2.71025832 6.24089524 2.71394287 4.84406471 2.71217918 C2.94018476 2.71053393 1.03631866 2.72894487 -0.86746216 2.7484436 C-1.93397664 2.75305257 -3.00049112 2.75766153 -4.09932423 2.76241016 C-7.12204349 3.20400971 -7.7995648 3.89184043 -9.73298645 6.14717102 C-12.42048645 6.83467102 -12.42048645 6.83467102 -14.73298645 7.14717102 C-10.06492063 1.05275175 -7.77372603 0.03267799 0 0 Z " fill="#EE7A58" transform="translate(133.7329864501953,227.8528289794922)"/>
<path d="M0 0 C4.91586865 0.01044983 9.83174295 0.01484272 14.74761963 0.01983643 C24.29841503 0.03038542 33.84918639 0.04732425 43.39996338 0.06866455 C43.39996338 0.72866455 43.39996338 1.38866455 43.39996338 2.06866455 C44.38996338 2.39866455 45.37996338 2.72866455 46.39996338 3.06866455 C2.17996338 3.06866455 -42.04003662 3.06866455 -87.60003662 3.06866455 C-87.60003662 2.73866455 -87.60003662 2.40866455 -87.60003662 2.06866455 C-78.23863633 1.34254281 -68.89109789 0.8057423 -59.50628662 0.5100708 C-58.50963234 0.47848468 -58.50963234 0.47848468 -57.49284363 0.44626045 C-38.33315566 -0.14219111 -19.16645992 -0.04524333 0 0 Z " fill="#F67E5B" transform="translate(217.60003662109375,287.93133544921875)"/>
<path d="M0 0 C0.33 0 0.66 0 1 0 C1.33 33.33 1.66 66.66 2 101 C2.33 101 2.66 101 3 101 C3 107.6 3 114.2 3 121 C3.66 121 4.32 121 5 121 C5 122.32 5 123.64 5 125 C6.98 125.66 8.96 126.32 11 127 C11 127.66 11 128.32 11 129 C17.92354847 128.88247267 24.84693737 128.75763983 31.77026367 128.62768555 C34.12635295 128.58432792 36.48247383 128.54265346 38.83862305 128.50268555 C42.22193938 128.44500324 45.60509657 128.38130269 48.98828125 128.31640625 C50.57277824 128.29133751 50.57277824 128.29133751 52.18928528 128.26576233 C53.17007553 128.24581711 54.15086578 128.22587189 55.16137695 128.20532227 C56.02519485 128.18977798 56.88901276 128.1742337 57.77900696 128.15821838 C60.17365425 128.07990261 60.17365425 128.07990261 63 127 C63.66 127 64.32 127 65 127 C65 126.34 65 125.68 65 125 C66.485 125.495 66.485 125.495 68 126 C63.33258077 129.21533324 60.12625614 131.11321262 54.44018555 131.16113281 C53.51880295 131.17074036 52.59742035 131.1803479 51.64811707 131.19024658 C50.65435562 131.19449646 49.66059418 131.19874634 48.63671875 131.203125 C47.61197952 131.20882507 46.5872403 131.21452515 45.53144836 131.22039795 C43.36187777 131.22984715 41.19229283 131.23638161 39.02270508 131.24023438 C35.71084404 131.24993165 32.39960578 131.28095281 29.08789062 131.3125 C26.97917035 131.31903106 24.87044564 131.32428113 22.76171875 131.328125 C21.77403 131.3404718 20.78634125 131.3528186 19.76872253 131.36553955 C14.41646266 131.34828344 10.61166773 131.03460419 6 128 C-0.42283339 121.39875457 -0.2853353 114.27169958 -0.22705078 105.57861328 C-0.22748886 103.86554741 -0.22748886 103.86554741 -0.22793579 102.11787415 C-0.22654509 98.35194235 -0.21099582 94.58620964 -0.1953125 90.8203125 C-0.19158145 88.20572009 -0.18873491 85.59112629 -0.18673706 82.97653198 C-0.18053112 76.80369454 -0.16413236 70.63092829 -0.14403808 64.45812213 C-0.12165144 57.42789705 -0.11067871 50.3976685 -0.10064721 43.36741662 C-0.0797653 28.91157443 -0.04460662 14.45578821 0 0 Z " fill="#D5664C" transform="translate(117,83)"/>
<path d="M0 0 C0.33 0 0.66 0 1 0 C1.33 26.73 1.66 53.46 2 81 C2.66 81 3.32 81 4 81 C4.66 82.32 5.32 83.64 6 85 C7.32 85 8.64 85 10 85 C10 85.66 10 86.32 10 87 C16.35389769 86.88244052 22.70762246 86.75760829 29.0612793 86.62768555 C31.2233556 86.58433687 33.38546613 86.54266175 35.54760742 86.50268555 C38.65293702 86.44498156 41.75809436 86.38128728 44.86328125 86.31640625 C45.83211746 86.29969376 46.80095367 86.28298126 47.79914856 86.26576233 C49.15020943 86.2358445 49.15020943 86.2358445 50.52856445 86.20532227 C51.32132278 86.18977798 52.11408112 86.1742337 52.93086243 86.15821838 C55.19739774 86.06918774 55.19739774 86.06918774 58 85 C58 83.68 58 82.36 58 81 C58.66 81 59.32 81 60 81 C60.33 79.35 60.66 77.7 61 76 C61.99 76.99 61.99 76.99 63 78 C62.73364976 81.86207846 60.55024797 84.23723136 58 87 C53.39333518 90.66052038 49.02121633 90.48276289 43.38671875 90.50390625 C42.45833694 90.51389145 41.52995514 90.52387665 40.57344055 90.53416443 C38.61256351 90.54932322 36.6516094 90.55639091 34.69067383 90.5559082 C31.70718185 90.5624568 28.72704229 90.61692415 25.74414062 90.67382812 C23.83334464 90.68263382 21.92253294 90.68858561 20.01171875 90.69140625 C19.1281218 90.7129628 18.24452484 90.73451935 17.33415222 90.75672913 C11.49115508 90.69284209 8.15120645 89.3328265 3.59333801 85.67881775 C-0.29934193 81.57730248 -0.280468 77.65250062 -0.22705078 72.20214844 C-0.22734283 71.42127869 -0.22763489 70.64040894 -0.22793579 69.83587646 C-0.2265448 67.26026212 -0.21099452 64.68493868 -0.1953125 62.109375 C-0.19158155 60.32147378 -0.18873496 58.5335705 -0.18673706 56.7456665 C-0.17910707 52.04384703 -0.159464 47.34215144 -0.1373291 42.64038086 C-0.11685704 37.84100012 -0.10773243 33.04159933 -0.09765625 28.2421875 C-0.07621753 18.82807062 -0.0420892 9.41404562 0 0 Z " fill="#DD6B47" transform="translate(262,351)"/>
<path d="M0 0 C0.66 0 1.32 0 2 0 C2 34.98 2 69.96 2 106 C-13.75 104.875 -13.75 104.875 -21 102 C-21 101.34 -21 100.68 -21 100 C-19.35 100 -17.7 100 -16 100 C-16 100.66 -16 101.32 -16 102 C-10.72 102 -5.44 102 0 102 C0 68.34 0 34.68 0 0 Z " fill="#F88157" transform="translate(396,220)"/>
<path d="M0 0 C1.98 0 3.96 0 6 0 C6 0.66 6 1.32 6 2 C7.23153809 1.99476318 8.46307617 1.98952637 9.73193359 1.98413086 C14.29035722 1.96606447 18.84877767 1.95456196 23.40722656 1.94506836 C25.38216687 1.9400319 27.35710343 1.93320249 29.33203125 1.92456055 C32.16667605 1.91246492 35.00127166 1.9067649 37.8359375 1.90234375 C38.72243988 1.89718246 39.60894226 1.89202118 40.52230835 1.88670349 C46.77225659 1.88612829 46.77225659 1.88612829 49 3 C49 2.34 49 1.68 49 1 C51.475 1.99 51.475 1.99 54 3 C52.3849304 4.94617153 51.49311032 5.90934249 48.96450806 6.3742218 C48.18683075 6.37359238 47.40915344 6.37296295 46.60791016 6.37231445 C45.28105698 6.38165764 45.28105698 6.38165764 43.92739868 6.39118958 C42.97424774 6.38197983 42.0210968 6.37277008 41.0390625 6.36328125 C40.05634369 6.36377975 39.07362488 6.36427826 38.06112671 6.36479187 C35.9814858 6.36245065 33.9018421 6.35271935 31.82226562 6.33618164 C28.64427217 6.31264275 25.46712067 6.31561388 22.2890625 6.32226562 C20.26822418 6.31668696 18.24738939 6.3095759 16.2265625 6.30078125 C14.80290878 6.30214836 14.80290878 6.30214836 13.35049438 6.30354309 C4.79575779 6.21201057 4.79575779 6.21201057 1 4 C0.1875 1.875 0.1875 1.875 0 0 Z " fill="#FE6D34" transform="translate(266,432)"/>
<path d="M0 0 C5.96881764 5.96881764 5.32358009 16.30910804 5.34817982 24.22193623 C5.3396591 26.81868376 5.31659003 29.41506838 5.29296875 32.01171875 C5.28736307 33.83445382 5.28309758 35.65719346 5.28010559 37.47993469 C5.26873325 42.24255177 5.2393329 47.00488783 5.20599365 51.76739502 C5.17512733 56.64111532 5.16156509 61.51488169 5.14648438 66.38867188 C5.11445483 75.9259037 5.06335222 85.46292835 5 95 C4.67 95 4.34 95 4 95 C3.68311519 87.41684506 3.37162077 79.83347518 3.0625 72.25 C3.01642609 71.12352051 2.97035217 69.99704102 2.92288208 68.83642578 C2.25295012 52.37448651 1.68474427 35.91455275 1.34204102 19.44238281 C1.32573639 18.74066956 1.30943176 18.0389563 1.29263306 17.315979 C1.2494463 15.45682451 1.21130285 13.59755472 1.17358398 11.73828125 C1.18093179 9.03708677 1.18093179 9.03708677 0 7 C-0.04022391 4.6670134 -0.04320247 2.33293334 0 0 Z " fill="#CC644A" transform="translate(184,107)"/>
<path d="M0 0 C0.33 0 0.66 0 1 0 C1 17.82 1 35.64 1 54 C-14.75 52.875 -14.75 52.875 -22 50 C-22 49.34 -22 48.68 -22 48 C-20.35 48 -18.7 48 -17 48 C-17 48.66 -17 49.32 -17 50 C-11.72 50 -6.44 50 -1 50 C-0.67 33.5 -0.34 17 0 0 Z " fill="#FB8B63" transform="translate(397,272)"/>
<path d="M0 0 C0.33 0 0.66 0 1 0 C1.33 26.73 1.66 53.46 2 81 C2.66 81 3.32 81 4 81 C4.66 82.98 5.32 84.96 6 87 C0.04390366 81.19662408 0.04390366 81.19662408 -0.12025452 76.72238159 C-0.12316512 75.291322 -0.12046995 73.86024492 -0.11352539 72.42919922 C-0.11367142 71.64862152 -0.11381744 70.86804382 -0.1139679 70.06381226 C-0.11326986 67.47740931 -0.10548257 64.89107791 -0.09765625 62.3046875 C-0.09579168 60.51392659 -0.09436796 58.72316517 -0.09336853 56.93240356 C-0.08954641 52.21415809 -0.07971871 47.4959433 -0.06866455 42.77770996 C-0.05844389 37.96509211 -0.0538695 33.15246932 -0.04882812 28.33984375 C-0.03809619 18.89321567 -0.0210234 9.44661038 0 0 Z " fill="#DF7651" transform="translate(262,351)"/>
<path d="M0 0 C1.32 0.33 2.64 0.66 4 1 C3.34 1 2.68 1 2 1 C2 2.32 2 3.64 2 5 C2.66 5 3.32 5 4 5 C4 4.34 4 3.68 4 3 C5.32 3 6.64 3 8 3 C8 4.32 8 5.64 8 7 C6.02 7 4.04 7 2 7 C2 8.32 2 9.64 2 11 C3.98 11 5.96 11 8 11 C8 11.66 8 12.32 8 13 C6.68 13 5.36 13 4 13 C4 14.98 4 16.96 4 19 C4.66 19 5.32 19 6 19 C8.29013653 22.4352048 8.17842973 23.985331 8 28 C1.30145811 20.02554537 -0.42074547 10.09789134 0 0 Z " fill="#E97451" transform="translate(242,163)"/>
<path d="M0 0 C0.99 0.66 1.98 1.32 3 2 C-4.75 2.125 -4.75 2.125 -7 1 C-9.37123246 0.76970044 -11.74741943 0.58880058 -14.125 0.4375 C-15.40632812 0.35371094 -16.68765625 0.26992187 -18.0078125 0.18359375 C-19.48894531 0.09271484 -19.48894531 0.09271484 -21 0 C-21 0.66 -21 1.32 -21 2 C-22.65 2.33 -24.3 2.66 -26 3 C-26.33 3.99 -26.66 4.98 -27 6 C-27.99 6 -28.98 6 -30 6 C-29.06600348 2.26401391 -28.06145556 1.04640522 -24.9375 -1.3125 C-17.01916277 -5.32054724 -8.00938544 -2.62169073 0 0 Z " fill="#DB7050" transform="translate(149,74)"/>
<path d="M0 0 C0.33 0 0.66 0 1 0 C1 13.86 1 27.72 1 42 C1.66 42 2.32 42 3 42 C3 43.32 3 44.64 3 46 C3.66 46 4.32 46 5 46 C5 46.99 5 47.98 5 49 C8.96 49.66 12.92 50.32 17 51 C12.60245919 53.1987704 11.55678524 53.39493426 7 52 C3.29408913 48.88366586 0.32211737 45.83059467 -0.24050903 40.88653564 C-0.23606781 40.13152771 -0.23162659 39.37651978 -0.22705078 38.59863281 C-0.22689972 37.7380426 -0.22674866 36.87745239 -0.22659302 35.99078369 C-0.21627045 35.07085632 -0.20594788 34.15092896 -0.1953125 33.203125 C-0.1924826 32.25435486 -0.18965271 31.30558472 -0.18673706 30.32806396 C-0.17555448 27.30191361 -0.1504533 24.2760607 -0.125 21.25 C-0.11496772 19.19661886 -0.1058423 17.14323308 -0.09765625 15.08984375 C-0.07562141 10.05978146 -0.04110462 5.02994114 0 0 Z " fill="#DB7959" transform="translate(117,238)"/>
<path d="M0 0 C-3.3947333 4.15300707 -6.71605092 7.73067044 -11 11 C-12.35147138 12.31494512 -13.69112542 13.64264858 -15 15 C-16.125 9.25 -16.125 9.25 -15 7 C-12.6859378 6.26924352 -10.35171131 5.59861742 -8 5 C-8 3.68 -8 2.36 -8 1 C-5.07175348 0.02391783 -3.04386724 -0.08226668 0 0 Z " fill="#E46F4D" transform="translate(200,403)"/>
<path d="M0 0 C10.70272601 0.74670181 20.53357435 5.63377296 29 12 C27.30078125 12.7109375 27.30078125 12.7109375 25 13 C22.66796875 11.6015625 22.66796875 11.6015625 20.1875 9.625 C16.03406164 6.53591845 13.25130489 5.31507829 8 5 C5.8125 4 5.8125 4 4 3 C2.6757713 2.63215869 1.34386088 2.28797019 0 2 C0 1.34 0 0.68 0 0 Z " fill="#E27753" transform="translate(348,163)"/>
<path d="M0 0 C1.65 0 3.3 0 5 0 C5 0.66 5 1.32 5 2 C10.28 2 15.56 2 21 2 C21 2.66 21 3.32 21 4 C21.66 4.66 22.32 5.32 23 6 C14.814234 5.6623226 7.64473588 5.03153319 0 2 C0 1.34 0 0.68 0 0 Z " fill="#F48564" transform="translate(375,320)"/>
<path d="M0 0 C0.9796875 0.00322266 1.959375 0.00644531 2.96875 0.00976562 C3.98453125 0.01814453 5.0003125 0.02652344 6.046875 0.03515625 C7.59375 0.04192383 7.59375 0.04192383 9.171875 0.04882812 C11.71360073 0.06059537 14.25520819 0.07703614 16.796875 0.09765625 C16.796875 0.42765625 16.796875 0.75765625 16.796875 1.09765625 C16.11584717 1.14253174 15.43481934 1.18740723 14.7331543 1.23364258 C11.64905865 1.44489642 8.56690938 1.67726995 5.484375 1.91015625 C3.8765918 2.01553711 3.8765918 2.01553711 2.23632812 2.12304688 C1.20830078 2.20361328 0.18027344 2.28417969 -0.87890625 2.3671875 C-1.82677002 2.43526611 -2.77463379 2.50334473 -3.7512207 2.57348633 C-6.55899414 3.17373422 -7.3356294 4.00342504 -9.203125 6.09765625 C-11.890625 6.78515625 -11.890625 6.78515625 -14.203125 7.09765625 C-9.70929763 1.23071496 -7.50422047 -0.04362919 0 0 Z " fill="#E27555" transform="translate(133.203125,227.90234375)"/>
<path d="M0 0 C0.66 0 1.32 0 2 0 C1.23619811 9.16562269 -2.79372729 15.37997578 -9 22 C-9.33 20.68 -9.66 19.36 -10 18 C-9.34 18 -8.68 18 -8 18 C-8 17.01 -8 16.02 -8 15 C-7.34 15 -6.68 15 -6 15 C-6 14.34 -6 13.68 -6 13 C-5.34 13 -4.68 13 -4 13 C-3.34 10.03 -2.68 7.06 -2 4 C-1.34 4 -0.68 4 0 4 C0 2.68 0 1.36 0 0 Z " fill="#E47855" transform="translate(234,356)"/>
<path d="M0 0 C0.33 1.32 0.66 2.64 1 4 C0.01 4.66 -0.98 5.32 -2 6 C-3.19232613 8.05003955 -3.19232613 8.05003955 -4 10 C-4.99 9.67 -5.98 9.34 -7 9 C-7 10.32 -7 11.64 -7 13 C-7.804375 13.28875 -8.60875 13.5775 -9.4375 13.875 C-12.1326468 14.73262568 -12.1326468 14.73262568 -13 17 C-13.66 17 -14.32 17 -15 17 C-15.33 17.66 -15.66 18.32 -16 19 C-16 16 -16 16 -14.53125 14.19067383 C-13.8609375 13.53607178 -13.190625 12.88146973 -12.5 12.20703125 C-11.778125 11.49482422 -11.05625 10.78261719 -10.3125 10.04882812 C-9.549375 9.31083984 -8.78625 8.57285156 -8 7.8125 C-6.8553125 6.68811523 -6.8553125 6.68811523 -5.6875 5.54101562 C-3.79819161 3.68713177 -1.90224794 1.84058931 0 0 Z " fill="#E37451" transform="translate(163,339)"/>
<path d="M0 0 C0.99 0 1.98 0 3 0 C3.33 1.65 3.66 3.3 4 5 C4.33 4.01 4.66 3.02 5 2 C5.66 2 6.32 2 7 2 C6.9175 2.70125 6.835 3.4025 6.75 4.125 C7.08419215 7.96820976 8.67004511 9.98476425 11 13 C11.66 13.33 12.32 13.66 13 14 C12.67 14.99 12.34 15.98 12 17 C7.14400427 12.52184832 2.97163327 7.95696069 0 2 C0 1.34 0 0.68 0 0 Z " fill="#F18358" transform="translate(349,296)"/>
<path d="M0 0 C0.99 0.495 0.99 0.495 2 1 C4.66231137 8.98693411 2.27270644 17.90922336 1 26 C0.67 26 0.34 26 0 26 C0 17.42 0 8.84 0 0 Z " fill="#FB7B56" transform="translate(322,278)"/>
<path d="M0 0 C0.99 0.33 1.98 0.66 3 1 C-2.28 6.28 -7.56 11.56 -13 17 C-13.66 16.67 -14.32 16.34 -15 16 C-15 15.34 -15 14.68 -15 14 C-14.01 14 -13.02 14 -12 14 C-12 13.34 -12 12.68 -12 12 C-11.34 12 -10.68 12 -10 12 C-9.34 10.68 -8.68 9.36 -8 8 C-7.34 8 -6.68 8 -6 8 C-6 7.34 -6 6.68 -6 6 C-5.34 6 -4.68 6 -4 6 C-4 5.34 -4 4.68 -4 4 C-3.34 4 -2.68 4 -2 4 C-2 3.01 -2 2.02 -2 1 C-1.34 0.67 -0.68 0.34 0 0 Z " fill="#CC694F" transform="translate(220,380)"/>
<path d="M0 0 C0.928125 0.7425 0.928125 0.7425 1.875 1.5 C3.83880904 3.19222773 3.83880904 3.19222773 6 3 C6 4.32 6 5.64 6 7 C5.34 7 4.68 7 4 7 C3.67 8.32 3.34 9.64 3 11 C0.35534962 7.8745041 -0.84414715 4.91211733 -2 1 C-1.34 0.67 -0.68 0.34 0 0 Z " fill="#F87E58" transform="translate(346,285)"/>
<path d="M0 0 C0 2.62113708 -0.31292445 4.50935112 -1 7 C-2.32 7 -3.64 7 -5 7 C-4.67 7.99 -4.34 8.98 -4 10 C-9.625 13 -9.625 13 -13 13 C-8.71 8.71 -4.42 4.42 0 0 Z " fill="#DC724F" transform="translate(177,325)"/>
<path d="M0 0 C1.84658203 0.00580078 1.84658203 0.00580078 3.73046875 0.01171875 C6.8125 0.3125 6.8125 0.3125 8.8125 2.3125 C7.76449219 2.36148437 6.71648437 2.41046875 5.63671875 2.4609375 C4.25778646 2.53598143 2.8788815 2.61152857 1.5 2.6875 C0.46456055 2.73390625 0.46456055 2.73390625 -0.59179688 2.78125 C-4.25740789 2.99374919 -6.06650792 3.23183861 -9.1875 5.3125 C-10.1775 4.6525 -11.1675 3.9925 -12.1875 3.3125 C-8.04366082 0.32104277 -5.06621019 -0.06940014 0 0 Z " fill="#D56A4C" transform="translate(201.1875,315.6875)"/>
<path d="M0 0 C4.29 0.99 8.58 1.98 13 3 C13.33 4.65 13.66 6.3 14 8 C8.76481294 6.56032356 4.36973991 4.18303389 0 1 C0 0.67 0 0.34 0 0 Z " fill="#E37252" transform="translate(266,208)"/>
<path d="M0 0 C0.66 0.66 1.32 1.32 2 2 C1.73419562 5.85416351 -0.45815539 8.24028299 -3 11 C-5.41800866 12.66238095 -6.34259826 13.10956696 -9.25 12.625 C-9.8275 12.41875 -10.405 12.2125 -11 12 C-11 11.67 -11 11.34 -11 11 C-8.36 10.34 -5.72 9.68 -3 9 C-3 7.68 -3 6.36 -3 5 C-2.34 5 -1.68 5 -1 5 C-0.67 3.35 -0.34 1.7 0 0 Z " fill="#ED7354" transform="translate(323,427)"/>
<path d="M0 0 C2.97 0.33 5.94 0.66 9 1 C9 1.66 9 2.32 9 3 C9.66 3.33 10.32 3.66 11 4 C8.875 5.25 8.875 5.25 6 6 C2.6875 4.25 2.6875 4.25 0 2 C0 1.34 0 0.68 0 0 Z " fill="#ED815B" transform="translate(365,314)"/>
<path d="M0 0 C0 1.65 0 3.3 0 5 C0.66 5 1.32 5 2 5 C2 6.32 2 7.64 2 9 C1.34 9 0.68 9 0 9 C0 9.66 0 10.32 0 11 C-1.32 11 -2.64 11 -4 11 C-3.67 10.01 -3.34 9.02 -3 8 C-2.34 8 -1.68 8 -1 8 C-1 7.01 -1 6.02 -1 5 C-2.32 4.67 -3.64 4.34 -5 4 C-1.125 0 -1.125 0 0 0 Z " fill="#EF744F" transform="translate(144,359)"/>
<path d="M0 0 C5.54569373 2.82943558 10.05016848 6.12573983 14 11 C14 11.66 14 12.32 14 13 C12.125 12.8125 12.125 12.8125 10 12 C9.33333333 10.33333333 8.66666667 8.66666667 8 7 C6.09821215 6.39938767 6.09821215 6.39938767 4 6 C1.75 4.0625 1.75 4.0625 0 2 C0 1.34 0 0.68 0 0 Z " fill="#E47154" transform="translate(162,81)"/>
<path d="M0 0 C0.66 0.33 1.32 0.66 2 1 C2.625 3.0625 2.625 3.0625 3 5 C2.01 5 1.02 5 0 5 C0 8.63 0 12.26 0 16 C-0.66 15.67 -1.32 15.34 -2 15 C-2.05429959 13.25034642 -2.09292823 11.50020213 -2.125 9.75 C-2.15980469 8.28820312 -2.15980469 8.28820312 -2.1953125 6.796875 C-1.99862781 3.9803502 -1.44568916 2.39050964 0 0 Z " fill="#CA6B4F" transform="translate(116,387)"/>
<path d="M0 0 C3.46740455 3.46740455 4.96118641 6.23945266 6 11 C5.95727615 14.06662266 5.57812301 16.99097423 5 20 C4.67 20 4.34 20 4 20 C4 16.7 4 13.4 4 10 C3.34 10 2.68 10 2 10 C1.34 6.7 0.68 3.4 0 0 Z " fill="#DA7351" transform="translate(230,332)"/>
<path d="M0 0 C5.6626826 2.8313413 9.15619099 5.98756041 13 11 C12.01 11 11.02 11 10 11 C9.525625 10.360625 9.05125 9.72125 8.5625 9.0625 C6.77509389 6.70312394 5.86332753 6.39494173 3 6 C3 5.34 3 4.68 3 4 C2.34 4 1.68 4 1 4 C0.67 2.68 0.34 1.36 0 0 Z " fill="#E37A56" transform="translate(217,320)"/>
<path d="M0 0 C9.59453303 3.85421412 9.59453303 3.85421412 13 8 C12 9 12 9 9.4375 9.0625 C8.633125 9.041875 7.82875 9.02125 7 9 C7 7.68 7 6.36 7 5 C6.34 5 5.68 5 5 5 C5 4.34 5 3.68 5 3 C3.35 2.67 1.7 2.34 0 2 C0 1.34 0 0.68 0 0 Z " fill="#ED7759" transform="translate(285,233)"/>
<path d="M0 0 C1.13199353 0.9080162 2.25532363 1.82683826 3.375 2.75 C4.00148438 3.26046875 4.62796875 3.7709375 5.2734375 4.296875 C7.08312318 6.08199481 8.00117455 7.67949644 9 10 C7.35 10 5.7 10 4 10 C4 9.01 4 8.02 4 7 C3.34 6.67 2.68 6.34 2 6 C2 5.34 2 4.68 2 4 C1.34 4 0.68 4 0 4 C0 2.68 0 1.36 0 0 Z " fill="#EB7959" transform="translate(304,246)"/>
<path d="M0 0 C0.226875 0.639375 0.45375 1.27875 0.6875 1.9375 C1.83913693 4.25653741 1.83913693 4.25653741 4.5 4.6875 C5.325 4.790625 6.15 4.89375 7 5 C7.66 5.33 8.32 5.66 9 6 C9 7.32 9 8.64 9 10 C5.17647894 8.4422692 2.70794407 6.08404742 0 3 C0 2.01 0 1.02 0 0 Z " fill="#EB6E50" transform="translate(134,422)"/>
<path d="M0 0 C3.42025316 3.42025316 3.95344801 7.71982025 4.125 12.4375 C4.08375 13.283125 4.0425 14.12875 4 15 C3.34 15 2.68 15 2 15 C0.53329887 9.77487721 -0.22577402 5.4185766 0 0 Z " fill="#CB6B4F" transform="translate(184,107)"/>
<path d="M0 0 C0.66 0.33 1.32 0.66 2 1 C0.61198929 4.35435922 -0.88629 6.11290303 -4 8 C-4.99 8 -5.98 8 -7 8 C-6.67 6.68 -6.34 5.36 -6 4 C-5.34 4 -4.68 4 -4 4 C-2.62689293 2.70766393 -1.28965176 1.37562854 0 0 Z " fill="#E77051" transform="translate(169,430)"/>
<path d="M0 0 C1.32 0 2.64 0 4 0 C4.33 0.99 4.66 1.98 5 3 C3.59554165 5.2636564 1.8032087 7.0208685 0 9 C-1.10844919 5.67465243 -0.84454356 3.37817425 0 0 Z " fill="#EA7754" transform="translate(201,394)"/>
<path d="M0 0 C0.99 0 1.98 0 3 0 C1.64978174 4.41889613 -0.26115668 6.34345343 -4 9 C-4 7.68 -4 6.36 -4 5 C-3.34 5 -2.68 5 -2 5 C-2 4.01 -2 3.02 -2 2 C-1.34 2 -0.68 2 0 2 C0 1.34 0 0.68 0 0 Z " fill="#F07558" transform="translate(228,369)"/>
<path d="M0 0 C1.65 0 3.3 0 5 0 C5 0.66 5 1.32 5 2 C6.98 2 8.96 2 11 2 C11 2.99 11 3.98 11 5 C7.37 4.01 3.74 3.02 0 2 C0 1.34 0 0.68 0 0 Z " fill="#E07F62" transform="translate(375,320)"/>
<path d="M0 0 C0.66 0 1.32 0 2 0 C2 1.32 2 2.64 2 4 C3.98 4.66 5.96 5.32 8 6 C8 6.99 8 7.98 8 9 C3.58110387 7.64978174 1.65654657 5.73884332 -1 2 C-0.67 1.34 -0.34 0.68 0 0 Z " fill="#E36E53" transform="translate(120,204)"/>
<path d="M0 0 C4.62 0.99 9.24 1.98 14 3 C9.62202596 5.18898702 8.54326456 5.32511883 4 4 C2.68 2.68 1.36 1.36 0 0 Z " fill="#DA6B52" transform="translate(120,286)"/>
<path d="M0 0 C0.99 0.495 0.99 0.495 2 1 C3.28317892 4.84953676 3.06643637 7.94738135 3 12 C0.13700494 9.13700494 0.00578775 7.34147716 -0.0625 3.3125 C-0.041875 2.219375 -0.02125 1.12625 0 0 Z " fill="#CC6E52" transform="translate(322,278)"/>
<path d="M0 0 C0.66 0 1.32 0 2 0 C2.33 3.63 2.66 7.26 3 11 C2.01 11 1.02 11 0 11 C0 7.37 0 3.74 0 0 Z " fill="#FA7A51" transform="translate(390,208)"/>
<path d="M0 0 C3.09592835 3.5087188 4.74194623 6.49197399 6 11 C3 10 3 10 1.3125 7.1875 C0 4 0 4 0 0 Z " fill="#D06D52" transform="translate(178,96)"/>
<path d="M0 0 C0.66 0 1.32 0 2 0 C2 0.66 2 1.32 2 2 C4.31 2 6.62 2 9 2 C9.33 2.99 9.66 3.98 10 5 C5.94393835 4.53199289 2.53411321 4.12046792 -1 2 C-0.67 1.34 -0.34 0.68 0 0 Z " fill="#D96C4F" transform="translate(282,214)"/>
<path d="M0 0 C0.99 0.33 1.98 0.66 3 1 C0.69 3.31 -1.62 5.62 -4 8 C-4.33 6.68 -4.66 5.36 -5 4 C-3.35 3.34 -1.7 2.68 0 2 C0 1.34 0 0.68 0 0 Z " fill="#CC664E" transform="translate(182,418)"/>
<path d="M0 0 C0.33 0.99 0.66 1.98 1 3 C-0.62339805 4.70884005 -2.29319053 6.37446717 -4 8 C-4.66 8 -5.32 8 -6 8 C-6.33 8.66 -6.66 9.32 -7 10 C-7 7 -7 7 -5.46875 5.17578125 C-4.8190625 4.56089844 -4.169375 3.94601562 -3.5 3.3125 C-2.8503125 2.68988281 -2.200625 2.06726563 -1.53125 1.42578125 C-0.77328125 0.72001953 -0.77328125 0.72001953 0 0 Z " fill="#DB7252" transform="translate(138,364)"/>
<path d="M0 0 C2.61724095 2.36797991 4.32861729 4.89600354 6 8 C6 8.66 6 9.32 6 10 C5.01 10 4.02 10 3 10 C3 8.68 3 7.36 3 6 C2.34 6 1.68 6 1 6 C0.67 4.02 0.34 2.04 0 0 Z " fill="#D27154" transform="translate(313,256)"/>
<path d="M0 0 C3.16115776 1.36983503 3.9927092 1.9890638 6 5 C4.02 5 2.04 5 0 5 C0 3.35 0 1.7 0 0 Z " fill="#E77B57" transform="translate(298,241)"/>
<path d="M0 0 C1.32 0 2.64 0 4 0 C4.28875 0.639375 4.5775 1.27875 4.875 1.9375 C5.82823451 4.15206079 5.82823451 4.15206079 8 5 C7.67 5.99 7.34 6.98 7 8 C5.83035398 6.8572081 4.66435444 5.71068285 3.5 4.5625 C2.8503125 3.92441406 2.200625 3.28632813 1.53125 2.62890625 C0 1 0 1 0 0 Z " fill="#E47C5D" transform="translate(354,305)"/>
<path d="M0 0 C2.35953094 2.35953094 2.49141413 3.77895617 3 7 C2.01 7 1.02 7 0 7 C-0.66 5.02 -1.32 3.04 -2 1 C-1.34 0.67 -0.68 0.34 0 0 Z " fill="#ED7C54" transform="translate(346,285)"/>
<path d="M0 0 C0.99 0.495 0.99 0.495 2 1 C3.27536232 6.44927536 3.27536232 6.44927536 2 9 C1.34 9 0.68 9 0 9 C0 6.03 0 3.06 0 0 Z " fill="#EA7A5D" transform="translate(320,271)"/>
<path d="M0 0 C4.95 0.99 4.95 0.99 10 2 C9.01 3.485 9.01 3.485 8 5 C4.35446828 3.7191375 2.83328987 2.83328987 0 0 Z " fill="#EB775A" transform="translate(266,208)"/>
</svg>
